<svg height="254.99" width="276" xmlns="http://www.w3.org/2000/svg"><clipPath id="a"><path d="M0 0h276v254.99H0z"/></clipPath><g clip-path="url(#a)"><g transform="translate(28)"><ellipse cx="110" cy="108.764" fill="#dff1fd" rx="110" ry="108.764"/><path d="M61.494 156.896h96.558a13.847 13.847 0 006.289-11.544V55.23a14.138 14.138 0 00-14.279-13.958h-24.281v-1.593a1.794 1.794 0 00-1.819-1.776H95.58a1.8 1.8 0 00-1.818 1.776v1.6H69.488a14.138 14.138 0 00-14.281 13.958v90.122a13.848 13.848 0 006.287 11.537z" fill="#fff"/><g fill="#1391e6"><path d="M150.062 159.309h-80.57a14.138 14.138 0 01-14.281-13.958V55.23a14.138 14.138 0 0114.281-13.958h80.57a14.138 14.138 0 0114.282 13.958v90.121a14.138 14.138 0 01-14.282 13.958zM69.492 46.483a8.861 8.861 0 00-8.95 8.747v90.121a8.861 8.861 0 008.95 8.747h80.57a8.861 8.861 0 008.95-8.747V55.23a8.861 8.861 0 00-8.95-8.747z"/><path d="M145.076 63.227a4.1 4.1 0 014.156 4.037v41.238a4.1 4.1 0 01-4.155 4.037H74.469a4.1 4.1 0 01-4.155-4.037V67.261a4.1 4.1 0 014.155-4.037h70.607m0-3.708H74.469a7.861 7.861 0 00-7.972 7.745v41.238a7.861 7.861 0 007.972 7.745h70.608a7.861 7.861 0 007.972-7.745V67.261a7.862 7.862 0 00-7.973-7.745zm-66.853 66.049a8.018 8.018 0 11-8.018 8.019 8.028 8.028 0 018.018-8.019m0-3.708a11.726 11.726 0 1011.727 11.727 11.726 11.726 0 00-11.727-11.727zm63.101 3.708a8.018 8.018 0 11-8.019 8.019 8.027 8.027 0 018.019-8.019m0-3.708a11.726 11.726 0 1011.726 11.727 11.727 11.727 0 00-11.726-11.727zm-21.825-65.815h-19.454a2.606 2.606 0 110-5.211h19.454a2.606 2.606 0 110 5.211zM57.811 178.701a2.606 2.606 0 01-1.972-4.309l16.736-19.391a2.606 2.606 0 013.945 3.405l-16.737 19.391a2.6 2.6 0 01-1.972.904zm103.925 0a2.6 2.6 0 01-1.973-.9l-16.737-19.394a2.606 2.606 0 013.944-3.405l16.737 19.391a2.606 2.606 0 01-1.972 4.309z"/><path d="M152.975 170.059H66.252a2.606 2.606 0 110-5.211h86.723a2.606 2.606 0 110 5.211zM123.647 37.903H95.901a1.774 1.774 0 00-1.774 1.776v4.222a1.773 1.773 0 001.774 1.773h27.746a1.773 1.773 0 001.773-1.773v-4.222a1.773 1.773 0 00-1.773-1.774z"/></g></g><path d="M136.244 253.309l-5.88-10.781H22a22 22 0 010-44h232a22 22 0 110 44H145.636l-5.88 10.781a2 2 0 01-3.512 0z" fill="#1391e6"/><text fill="#fff" font-family="rounded-mplus-1c-bold, 'Rounded M\+ \31 c'" font-size="20" font-weight="700" letter-spacing=".08em" transform="translate(138 228.528)"><tspan x="-71.2" y="0">駅</tspan><tspan y="0">から</tspan><tspan y="0">徒歩3分</tspan></text></g></svg>