<svg height="254.993" width="276" xmlns="http://www.w3.org/2000/svg"><ellipse cx="138" cy="109.585" fill="#dff1fd" rx="110" ry="109.585"/><circle cx="136.492" cy="110.622" fill="#fff" r="61.866"/><g fill="#1391e6"><path d="M136.492 175.112a64.491 64.491 0 1164.491-64.492 64.565 64.565 0 01-64.491 64.492zm0-123.731a59.241 59.241 0 1059.24 59.24 59.307 59.307 0 00-59.24-59.24z"/><circle cx="136.492" cy="60.195" r="3.782"/><circle cx="136.492" cy="161.049" r="3.782"/><circle cx="186.919" cy="110.622" r="3.782"/><circle cx="86.065" cy="110.622" r="3.782"/><circle cx="180.163" cy="85.408" r="2.062"/><circle cx="92.82" cy="135.835" r="2.062"/><circle cx="161.705" cy="66.95" r="2.062"/><circle cx="111.278" cy="154.293" r="2.062"/><circle cx="111.278" cy="66.95" r="2.062"/><circle cx="161.705" cy="154.293" r="2.062"/><circle cx="92.82" cy="85.408" r="2.062"/><circle cx="180.163" cy="135.835" r="2.062"/><path d="M136.492 152.743c-1.054 0-1.928-1.164-2-2.661l-1.649-36.435c-.075-1.639.84-3.026 2-3.026h3.3c1.155 0 2.07 1.387 2 3.026l-1.649 36.435c-.075 1.497-.948 2.661-2.002 2.661z"/><path d="M105.743 119.046a2.2 2.2 0 011.352-2.679l25.948-8.852a2.184 2.184 0 012.774 1.577l.956 3.576a2.183 2.183 0 01-1.617 2.75l-26.9 5.276a2.2 2.2 0 01-2.513-1.648z"/><circle cx="136.224" cy="110.621" r="5.074"/></g><g transform="translate(155.515 44)"><circle cx="23.799" cy="23.799" fill="#1391e6" r="23.799"/><path d="M34.711 12.884a15.414 15.414 0 00-12.963-4.375A10.014 10.014 0 118.509 21.748a15.43 15.43 0 1026.2-8.864z" fill="#fff"/></g><path d="M136.244 253.951l-5.88-10.781H22a22 22 0 010-44h232a22 22 0 110 44H145.636l-5.88 10.781a2 2 0 01-3.512 0z" fill="#1391e6"/><text fill="#fff" font-family="rounded-mplus-1c-bold, 'Rounded M\+ \31 c'" font-size="20" font-weight="700" letter-spacing=".08em" transform="translate(138 229.17)"><tspan x="-86.98" y="0">夜20:30</tspan><tspan y="0">まで</tspan><tspan y="0">営業</tspan></text></svg>