<?xml version="1.0" encoding="utf-8"?><svg xmlns="http://www.w3.org/2000/svg" xmlns:xlink="http://www.w3.org/1999/xlink"><symbol viewBox="0 0 16 16" id="arrow-next" xmlns="http://www.w3.org/2000/svg"><path d="M7.999 15.999a8 8 0 118-8 8 8 0 01-8 8zm.932-4.632L6.496 9.032h5.89a.772.772 0 00.774-.774v-.521a.772.772 0 00-.774-.774h-5.89l2.436-2.331a.775.775 0 00.013-1.106l-.355-.352a.771.771 0 00-1.094 0l-4.28 4.277a.771.771 0 000 1.094l4.281 4.281a.771.771 0 001.094 0l.355-.352a.775.775 0 00-.014-1.107z" fill="#fff"/></symbol><symbol viewBox="0 0 16 16" id="arrow-prev" xmlns="http://www.w3.org/2000/svg"><path d="M7.999 0a8 8 0 11-8 8 8 8 0 018-8zm-.932 4.632l2.436 2.335H3.612a.772.772 0 00-.775.77v.516a.772.772 0 00.774.774h5.89l-2.434 2.34a.775.775 0 00-.013 1.106l.355.352a.771.771 0 001.094 0l4.281-4.277a.771.771 0 000-1.094L8.503 3.17a.771.771 0 00-1.094 0l-.355.352a.779.779 0 00.013 1.11z" fill="#fff"/></symbol><symbol viewBox="0 0 1280 97" id="bg-bottom" xmlns="http://www.w3.org/2000/svg"><path d="M640 97c298.612 0 551.817-40.678 640-97H0c88.178 56.322 341.388 97 640 97z" fill="#dff1fd"/></symbol><symbol viewBox="0 0 57.356 57.362" id="bg-deco01" xmlns="http://www.w3.org/2000/svg"><path d="M24.084 9.119c-1.854 6.384-8.581 13.124-14.965 14.965l-4.335 1.24c-6.384 1.854-6.384 4.874 0 6.715l4.334 1.24c6.384 1.841 13.111 8.581 14.965 14.965l1.24 4.321c1.842 6.4 4.862 6.4 6.7 0l1.261-4.321c1.842-6.384 8.581-13.124 14.965-14.965l4.321-1.24c6.384-1.841 6.384-4.862 0-6.715l-4.321-1.24c-6.384-1.841-13.124-8.581-14.965-14.965l-1.252-4.321c-1.841-6.4-4.862-6.4-6.7 0z" fill="#fff"/></symbol><symbol viewBox="0 0 125.755 137.762" id="bg-deco02" xmlns="http://www.w3.org/2000/svg"><path d="M26.283 99.666c1.464 5.046 6.787 10.349 11.833 11.813l3.4.99c5.046 1.444 5.046 3.839 0 5.283l-3.4.99c-5.046 1.464-10.369 6.767-11.833 11.813l-.989 3.423c-1.444 5.046-3.839 5.046-5.283 0l-.989-3.423c-1.445-5.046-6.767-10.349-11.813-11.813l-3.423-.99c-5.046-1.444-5.046-3.839 0-5.283l3.423-.99c5.046-1.464 10.369-6.767 11.813-11.813l.989-3.423c1.444-5.046 3.839-5.046 5.283 0zm60.649-84.968c2.988 10.29 13.832 21.153 24.121 24.121l6.985 2c10.29 2.988 10.29 7.856 0 10.824l-6.985 2c-10.29 2.968-21.133 13.832-24.121 24.121l-2 6.965c-2.968 10.309-7.836 10.309-10.8 0l-2.018-6.965c-2.971-10.29-13.835-21.156-24.123-24.124l-6.965-2c-10.29-2.968-10.29-7.836 0-10.824l6.965-2c10.29-2.968 21.153-13.832 24.121-24.121L74.13 7.73c2.968-10.309 7.836-10.309 10.8 0z"/></symbol><symbol viewBox="0 0 1280 201.656" id="bg-top" xmlns="http://www.w3.org/2000/svg"><path d="M814.736 101.962c-72.33 8.177-121.326 11.361-174.769 11.361s-102.425-3.185-174.711-11.356C331.643 86.8 207.75 96.539 116.464 129.406 66.125 147.532 26.9 172.079 0 201.656h1280c-26.9-29.576-66.115-54.122-116.448-72.245-91.277-32.871-215.191-42.6-348.816-27.449zm-766.453 8.265c1.464 5.046 6.787 10.349 11.833 11.813l3.4.99c5.046 1.444 5.046 3.839 0 5.283l-3.4.99c-5.046 1.464-10.369 6.767-11.833 11.813l-.989 3.423c-1.444 5.046-3.839 5.046-5.283 0l-.989-3.423c-1.445-5.046-6.767-10.349-11.813-11.813l-3.423-.99c-5.046-1.444-5.046-3.839 0-5.283l3.423-.99c5.046-1.464 10.369-6.767 11.813-11.813l.989-3.423c1.444-5.046 3.839-5.046 5.283 0zm60.649-84.968c2.988 10.29 13.832 21.153 24.121 24.121l6.985 2c10.29 2.988 10.29 7.856 0 10.824l-6.985 2c-10.29 2.968-21.133 13.832-24.121 24.121l-2 6.965c-2.968 10.309-7.836 10.309-10.8 0l-2.018-6.965c-2.971-10.29-13.835-21.156-24.123-24.124l-6.965-2c-10.29-2.968-10.29-7.836 0-10.824l6.965-2c10.29-2.968 21.153-13.832 24.121-24.121l2.018-6.965c2.968-10.309 7.836-10.309 10.8 0zm1099.796 45.968c-1.854 6.384-8.581 13.124-14.965 14.965l-4.335 1.24c-6.384 1.854-6.384 4.874 0 6.715l4.334 1.24c6.384 1.841 13.111 8.581 14.965 14.965l1.24 4.321c1.842 6.4 4.862 6.4 6.7 0l1.261-4.321c1.842-6.384 8.581-13.124 14.965-14.965l4.321-1.24c6.384-1.841 6.384-4.862 0-6.715l-4.321-1.24c-6.384-1.841-13.124-8.581-14.965-14.965l-1.252-4.321c-1.841-6.4-4.862-6.4-6.7 0zM669.994 88.018a10 10 0 01-7.071-17.071 29.844 29.844 0 10-42.206 0 10 10 0 01-14.142 14.143 49.844 49.844 0 1170.49 0 9.971 9.971 0 01-7.071 2.928z" fill="#dff1fd"/></symbol><symbol viewBox="0 0 1280 32" id="bg-wave" xmlns="http://www.w3.org/2000/svg"><g clip-path="url(#a)" fill="#dff1fd"><path d="M0 14.24c10.619 0 16-3.69 21.208-7.26S31.374 0 41.5 0s15.084 3.39 20.292 7S72.4 14.24 83 14.24V32H0zm83 0c10.619 0 16-3.69 21.208-7.26S114.374 0 124.5 0s15.084 3.39 20.292 7S155.4 14.24 166 14.24V32H83zm83 0c10.619 0 16-3.69 21.208-7.26S197.374 0 207.5 0s15.084 3.39 20.292 7S238.4 14.24 249 14.24V32h-83zm83 0c10.619 0 16-3.69 21.208-7.26S280.374 0 290.5 0s15.084 3.39 20.292 7S321.4 14.24 332 14.24V32h-83zm83 0c10.619 0 16-3.69 21.208-7.26S363.374 0 373.5 0s15.084 3.39 20.292 7S404.4 14.24 415 14.24V32h-83zm83 0c10.619 0 16-3.69 21.208-7.26S446.374 0 456.5 0s15.084 3.39 20.292 7S487.4 14.24 498 14.24V32h-83zm83 0c10.619 0 16-3.69 21.208-7.26S529.374 0 539.5 0s15.084 3.39 20.292 7S570.4 14.24 581 14.24V32h-83zm83 0c10.619 0 16-3.69 21.208-7.26S612.374 0 622.5 0s15.084 3.39 20.292 7S653.4 14.24 664 14.24V32h-83zm83 0c10.619 0 16-3.69 21.208-7.26S695.374 0 705.5 0s15.084 3.39 20.292 7S736.4 14.24 747 14.24V32h-83zm83 0c10.619 0 16-3.69 21.208-7.26S778.374 0 788.5 0s15.084 3.39 20.292 7S819.4 14.24 830 14.24V32h-83zm83 0c10.619 0 16-3.69 21.208-7.26S861.374 0 871.5 0s15.084 3.39 20.292 7S902.4 14.24 913 14.24V32h-83zm83 0c10.619 0 16-3.69 21.208-7.26S944.374 0 954.5 0s15.084 3.39 20.292 7S985.4 14.24 996 14.24V32h-83zm83 0c10.619 0 16-3.69 21.208-7.26S1027.374 0 1037.5 0s15.084 3.39 20.292 7 10.608 7.24 21.208 7.24V32h-83zm83 0c10.619 0 16-3.69 21.208-7.26S1110.374 0 1120.5 0s15.084 3.39 20.292 7 10.608 7.24 21.208 7.24V32h-83zm83 0c10.619 0 16-3.69 21.208-7.26S1193.374 0 1203.5 0s15.084 3.39 20.292 7 10.608 7.24 21.208 7.24V32h-83zm83 0c10.619 0 16-3.69 21.208-7.26S1276.374 0 1286.5 0s15.084 3.39 20.292 7 10.608 7.24 21.208 7.24V32h-83z"/></g></symbol><symbol viewBox="0 0 556.499 307.924" id="concept-bg" xmlns="http://www.w3.org/2000/svg"><g fill="#dff1fd"><path d="M368.596 280.788C-9.441 385.507-28.359 158.388 22.433 86.168S186.594 42.624 240.033 53s128.561-18.859 128.561-18.859 65.44-34.2 107.7-29.236 73.883 28 79.616 73.96c6.782 54.338-44.637 162.78-187.314 201.923zM11.156 51.969a8.212 8.212 0 005.022 5.014l1.444.42c2.142.613 2.142 1.629 0 2.242l-1.444.42a8.211 8.211 0 00-5.022 5.014l-.42 1.453c-.613 2.141-1.629 2.141-2.242 0l-.42-1.453a8.178 8.178 0 00-5.014-5.014l-1.454-.419c-2.142-.613-2.142-1.629 0-2.242l1.453-.42a8.178 8.178 0 005.014-5.014l.42-1.453c.613-2.142 1.629-2.142 2.242 0zm25.739-36.061a16.744 16.744 0 0010.237 10.236l2.965.848c4.367 1.268 4.367 3.334 0 4.594l-2.965.848a16.744 16.744 0 00-10.237 10.237l-.848 2.956c-1.26 4.375-3.326 4.375-4.585 0l-.857-2.956a16.723 16.723 0 00-10.237-10.237l-2.956-.848c-4.367-1.26-4.367-3.326 0-4.594l2.956-.848a16.723 16.723 0 0010.237-10.237l.857-2.956c1.26-4.375 3.326-4.375 4.585 0z"/><path d="M294.193 41.747a4.245 4.245 0 01-1.1-8.346 12.667 12.667 0 10-15.516-8.955 4.245 4.245 0 11-8.2 2.2 21.157 21.157 0 1125.914 14.956 4.24 4.24 0 01-1.098.145z"/></g></symbol><symbol viewBox="0 0 24 24" id="icon-about" xmlns="http://www.w3.org/2000/svg"><path d="M8.368 11.232V9.555a.5.5 0 01.5-.5h1.68a.5.5 0 01.5.5v1.677a.5.5 0 01-.5.5H8.871a.5.5 0 01-.503-.5zm5.871.5h1.677a.5.5 0 00.5-.5V9.555a.5.5 0 00-.5-.5h-1.678a.5.5 0 00-.5.5v1.677a.5.5 0 00.5.503zm-3.188 3.526V13.58a.5.5 0 00-.5-.5h-1.68a.5.5 0 00-.5.5v1.677a.5.5 0 00.5.5h1.677a.5.5 0 00.503-.499zm3.187.5h1.677a.5.5 0 00.5-.5V13.58a.5.5 0 00-.5-.5h-1.677a.5.5 0 00-.5.5v1.677a.5.5 0 00.5.504zm7.548 5.2v1.51H3v-1.51a.5.5 0 01.5-.5h.818V4.566a.95.95 0 011.006-.882h3.715V2.006A1.006 1.006 0 0110.045 1h4.7a1.006 1.006 0 011.006 1.006v1.678h3.711a.95.95 0 011.006.882v15.892h.818a.5.5 0 01.501.503zm-15.452-.542h4.717v-2.81a.5.5 0 01.5-.5h1.677a.5.5 0 01.5.5v2.81h4.718V5.7h-2.7v1a1.006 1.006 0 01-1.004 1.01h-4.7A1.006 1.006 0 019.039 6.7v-1h-2.7zm7.821-16.732h-1.09v-1.09a.252.252 0 00-.252-.252h-.839a.252.252 0 00-.252.252v1.09h-1.09a.252.252 0 00-.252.252v.839a.252.252 0 00.252.252h1.09v1.09a.252.252 0 00.252.252h.839a.252.252 0 00.252-.252V5.026h1.09a.252.252 0 00.252-.252v-.839a.252.252 0 00-.252-.251z"/></symbol><symbol viewBox="0 0 24 24" id="icon-blog" xmlns="http://www.w3.org/2000/svg"><path d="M19.4 7.34L16.66 4.6A2 2 0 0014 4.53l-9 9a2 2 0 00-.57 1.21L4 18.91A1 1 0 005 20h.09l4.17-.38a2 2 0 001.21-.57l9-9a1.92 1.92 0 00-.07-2.71zM9.08 17.62l-3 .28.27-3L12 9.32l2.7 2.7zM16 10.68L13.32 8l1.95-2L18 8.73z"/></symbol><symbol viewBox="0 0 24 24" id="icon-contact" xmlns="http://www.w3.org/2000/svg"><path d="M19 4H5a3 3 0 00-3 3v10a3 3 0 003 3h14a3 3 0 003-3V7a3 3 0 00-3-3zm-.67 2L12 10.75 5.67 6zM19 18H5a1 1 0 01-1-1V7.25l7.4 5.55a1 1 0 001.2 0L20 7.25V17a1 1 0 01-1 1z"/></symbol><symbol viewBox="0 0 24 24" id="icon-home" xmlns="http://www.w3.org/2000/svg"><path d="M20.42 10.18L12.71 2.3a1 1 0 00-1.42 0l-7.71 7.89A2 2 0 003 11.62V20a2 2 0 001.89 2h14.22A2 2 0 0021 20v-8.38a2.07 2.07 0 00-.58-1.44zM10 20v-6h4v6zm9 0h-3v-7a1 1 0 00-1-1H9a1 1 0 00-1 1v7H5v-8.42l7-7.15 7 7.19z"/></symbol><symbol viewBox="0 0 24 24" id="icon-medical" xmlns="http://www.w3.org/2000/svg"><path d="M15 16H9a1 1 0 000 2h6a1 1 0 000-2zm-6-2h3a1 1 0 000-2H9a1 1 0 000 2z"/><path d="M19.74 8.33l-5.44-6a1 1 0 00-.74-.33h-7A2.53 2.53 0 004 4.5v15A2.53 2.53 0 006.56 22h10.88A2.53 2.53 0 0020 19.5V9a1 1 0 00-.26-.67zM14 5l2.74 3h-2a.79.79 0 01-.74-.85zm3.44 15H6.56a.53.53 0 01-.56-.5v-15a.53.53 0 01.56-.5H12v3.15A2.79 2.79 0 0014.71 10H18v9.5a.53.53 0 01-.56.5z"/></symbol><symbol viewBox="0 0 15.4 15.979" id="icon-right" xmlns="http://www.w3.org/2000/svg"><path d="M.7 7.99h14m-6.606-7l6.606 7-6.606 7" stroke-linecap="round" stroke-linejoin="round" stroke-width="1.4"/></symbol><symbol viewBox="0 0 24 24" id="icon-sidebar01" xmlns="http://www.w3.org/2000/svg"><path d="M8.368 11.232V9.555a.5.5 0 01.5-.5h1.68a.5.5 0 01.5.5v1.677a.5.5 0 01-.5.5H8.871a.5.5 0 01-.503-.5zm5.871.5h1.677a.5.5 0 00.5-.5V9.555a.5.5 0 00-.5-.5h-1.678a.5.5 0 00-.5.5v1.677a.5.5 0 00.5.503zm-3.188 3.526V13.58a.5.5 0 00-.5-.5h-1.68a.5.5 0 00-.5.5v1.677a.5.5 0 00.5.5h1.677a.5.5 0 00.503-.499zm3.187.5h1.677a.5.5 0 00.5-.5V13.58a.5.5 0 00-.5-.5h-1.677a.5.5 0 00-.5.5v1.677a.5.5 0 00.5.504zm7.548 5.2v1.51H3v-1.51a.5.5 0 01.5-.5h.818V4.566a.95.95 0 011.006-.882h3.715V2.006A1.006 1.006 0 0110.045 1h4.7a1.006 1.006 0 011.006 1.006v1.678h3.711a.95.95 0 011.006.882v15.892h.818a.5.5 0 01.501.503zm-15.452-.542h4.717v-2.81a.5.5 0 01.5-.5h1.677a.5.5 0 01.5.5v2.81h4.718V5.7h-2.7v1a1.006 1.006 0 01-1.004 1.01h-4.7A1.006 1.006 0 019.039 6.7v-1h-2.7zm7.821-16.732h-1.09v-1.09a.252.252 0 00-.252-.252h-.839a.252.252 0 00-.252.252v1.09h-1.09a.252.252 0 00-.252.252v.839a.252.252 0 00.252.252h1.09v1.09a.252.252 0 00.252.252h.839a.252.252 0 00.252-.252V5.026h1.09a.252.252 0 00.252-.252v-.839a.252.252 0 00-.252-.251z" fill="#393939"/><path d="M0 0h24v24H0z" fill="none"/></symbol><symbol viewBox="0 0 24 24" id="icon-sidebar02" xmlns="http://www.w3.org/2000/svg"><g fill="none"><path d="M13.061 3h-6.27A1.791 1.791 0 005 4.791v14.331a1.791 1.791 0 001.791 1.791H17.54a1.791 1.791 0 001.791-1.791V9.27z"/><path d="M13.061 3v6.27h6.27"/><path d="M0 0h24v24H0z"/></g></symbol><symbol viewBox="0 0 24 24" id="icon-sidebar03" xmlns="http://www.w3.org/2000/svg"><path d="M20.938 6.244h-8.472l-1.993-2.467h-6.48A2.106 2.106 0 002 5.97v12.057a2.106 2.106 0 001.993 2.2h16.945a2.106 2.106 0 001.994-2.2v-9.59a2.106 2.106 0 00-1.994-2.193zm.499 11.783a.532.532 0 01-.5.548H3.993a.532.532 0 01-.5-.548V7.889h17.445a.532.532 0 01.5.548z" fill="#393939"/><path d="M0 0h24v24H0z" fill="none"/></symbol><symbol viewBox="0 0 24 24" id="icon-staff" xmlns="http://www.w3.org/2000/svg"><path d="M9 11a4 4 0 10-4-4 4 4 0 004 4zm0-6a2 2 0 11-2 2 2 2 0 012-2zm8 8a3 3 0 10-3-3 3 3 0 003 3zm0-4a1 1 0 11-1 1 1 1 0 011-1zm0 5a5 5 0 00-3.06 1.05A7 7 0 002 20a1 1 0 102 0 5 5 0 0110 0 1 1 0 002 0 6.9 6.9 0 00-.86-3.35A3 3 0 0120 19a1 1 0 102 0 5 5 0 00-5-5z"/></symbol><symbol viewBox="0 0 100 80" id="icon-tag01_pc" xmlns="http://www.w3.org/2000/svg"><path d="M0 0h100v80L51.284 63.673 0 80z" fill="#1391e6"/><text fill="#fff" font-family="rounded-mplus-1c-bold, 'Rounded M\+ \31 c'" font-size="16" font-weight="700" letter-spacing=".08em" transform="translate(50 40)"><tspan x="-33.92" y="0">保険対象</tspan></text></symbol><symbol viewBox="0 0 80 60" id="icon-tag01_sp" xmlns="http://www.w3.org/2000/svg"><path d="M0 0h80v60L41.027 47.755 0 60z" fill="#1391e6"/><text fill="#fff" font-family="rounded-mplus-1c-bold, 'Rounded M\+ \31 c'" font-size="14" font-weight="700" letter-spacing=".08em" transform="translate(40 31)"><tspan x="-29.68" y="0">保険対象</tspan></text></symbol><symbol viewBox="0 0 100 80" id="icon-tag02_pc" xmlns="http://www.w3.org/2000/svg"><path d="M0 0h100v80L51.284 63.673 0 80z" fill="#ee5a6d"/><text fill="#fff" font-family="rounded-mplus-1c-bold, 'Rounded M\+ \31 c'" font-size="16" font-weight="700" letter-spacing=".08em" transform="translate(50 40)"><tspan x="-19.552" y="0">実 費</tspan></text></symbol><symbol viewBox="0 0 80 60" id="icon-tag02_sp" xmlns="http://www.w3.org/2000/svg"><path d="M0 0h80v60L41.027 47.755 0 60z" fill="#ee5a6d"/><text fill="#fff" font-family="rounded-mplus-1c-bold, 'Rounded M\+ \31 c'" font-size="14" font-weight="700" letter-spacing=".08em" transform="translate(40 31)"><tspan x="-17.108" y="0">実 費</tspan></text></symbol><symbol viewBox="0 0 28 28" id="icon-tel" xmlns="http://www.w3.org/2000/svg"><path d="M27.2 19.786l-6.125-2.625a1.313 1.313 0 00-1.531.377l-2.713 3.314a20.271 20.271 0 01-9.69-9.69l3.315-2.712a1.309 1.309 0 00.377-1.531L8.209.794A1.321 1.321 0 006.7.033L1.017 1.346A1.313 1.313 0 000 2.625 25.373 25.373 0 0025.375 28a1.313 1.313 0 001.28-1.017l1.313-5.683a1.328 1.328 0 00-.768-1.514z" fill="#1391e6"/></symbol><symbol viewBox="0 0 48.858 28.613" id="icon-web" xmlns="http://www.w3.org/2000/svg"><path d="M46.79 6.559h-9.648a2.068 2.068 0 00-2.068 2.068v17.918a2.068 2.068 0 002.068 2.068h9.649a2.068 2.068 0 002.068-2.068V8.627a2.068 2.068 0 00-2.069-2.068zm-4.824 20.675a1.378 1.378 0 111.378-1.375 1.377 1.377 0 01-1.378 1.375zm4.824-4.652a.518.518 0 01-.517.517h-8.615a.518.518 0 01-.517-.517V9.143a.518.518 0 01.517-.517h8.616a.518.518 0 01.517.517zM29.507 0H2.682A2.683 2.683 0 000 2.682v17.883a2.683 2.683 0 002.682 2.682h10.73l-.894 2.682H8.494a1.341 1.341 0 100 2.682h15.2a1.341 1.341 0 100-2.682h-4.023l-.894-2.682h10.73a2.683 2.683 0 002.682-2.682V2.682A2.683 2.683 0 0029.507 0zm-.894 19.671H3.577V3.577h25.036z"/></symbol><symbol viewBox="0 0 269.563 30.935" id="logo" xmlns="http://www.w3.org/2000/svg"><path d="M48.427 5.315h4.536q3.969.028 3.743 4.372-.17 1.7-.453 4a23.9 23.9 0 012.466.965q.142-1.221.283-3.293.114-1.874 1.844-1.874 1.956.056 1.9 1.874-.2 3.065-.425 4.968l1.134.653q2.07.966 1.248 3.406a1.694 1.694 0 01-2.608.8l-.482-.256a54.307 54.307 0 01-1.673 5.82 1.944 1.944 0 01-2.721 1.136 1.836 1.836 0 01-1.021-2.726 27.046 27.046 0 001.786-6.1q-.652-.312-1.276-.582t-1.219-.5l-.028.057a21.546 21.546 0 01-1.361 3.86 12.538 12.538 0 01-2.169 3.35 4.219 4.219 0 01-2.82 1.477 3.6 3.6 0 01-3.3-2.016 8.933 8.933 0 01-.722-5.309 6.522 6.522 0 011.46-3.279 8.951 8.951 0 012.721-2.214 7.86 7.86 0 013.3-.893q.114-.908.2-1.76.113-1.363-.964-1.391h-3.379a2.271 2.271 0 010-4.542zm.822 16.834a1.4 1.4 0 001.091-.767 7.454 7.454 0 00.78-1.7q.311-.966.482-1.718t.171-.781a2.853 2.853 0 00-1.645.483 3.256 3.256 0 00-1.063 1.135 5.656 5.656 0 00-.5 1.164 2.562 2.562 0 00.1 1.647q.297.538.581.537zM67.393 9.403a1.88 1.88 0 012.126-2.129h1.446l.312-1.7q.313-1.5 2.212-1.533 1.985.114 1.645 1.761a10.9 10.9 0 00-.255 1.477h1.475a2.143 2.143 0 010 4.286h-2.161q-2.012 8.488-2.41 10.192-.425 1.675-2.381 1.363a1.67 1.67 0 01-1.475-2.271q1.787-6.529 2.269-9.284h-.681a1.893 1.893 0 01-2.122-2.162zm15.962 4.883v2.782a22.46 22.46 0 013.176 1.5q1.218.908.34 2.612a1.614 1.614 0 01-2.382.568q-.4-.2-1.134-.482v1.845a5.934 5.934 0 01-.723 3.251 3.643 3.643 0 01-1.744 1.476 5.843 5.843 0 01-2.07.383 6.9 6.9 0 01-2.679-.426 4.82 4.82 0 01-2.24-1.731 5.839 5.839 0 01-.921-3.52 6.062 6.062 0 011.8-4.585 6.25 6.25 0 014.891-1.461v-2.214a1.843 1.843 0 113.685 0zm-4.537 9.936a.747.747 0 00.638-.426 2.219 2.219 0 00.213-1.051v-2.413a3.054 3.054 0 00-2.325.369 2.175 2.175 0 00-.879 1.646 1.656 1.656 0 00.609 1.5 2.6 2.6 0 001.742.375zM79.893 8.38a1.883 1.883 0 012.609-1.419l2.551.681a1.8 1.8 0 011.475 2.5 1.914 1.914 0 01-2.635 1.418l-2.523-.681a1.771 1.771 0 01-1.477-2.499zm13.582-3.065h4.537q3.969.028 3.743 4.372-.17 1.7-.454 4a23.826 23.826 0 012.467.965q.142-1.221.284-3.293.113-1.874 1.843-1.874 1.957.056 1.9 1.874-.2 3.065-.425 4.968l1.134.653q2.069.966 1.248 3.406a1.7 1.7 0 01-2.609.8l-.482-.256a54.532 54.532 0 01-1.673 5.82 1.945 1.945 0 01-2.722 1.136 1.835 1.835 0 01-1.02-2.726 27.043 27.043 0 001.786-6.1q-.653-.312-1.276-.582t-1.219-.5l-.028.057a21.615 21.615 0 01-1.361 3.86 12.579 12.579 0 01-2.169 3.35 4.219 4.219 0 01-2.821 1.477 3.6 3.6 0 01-3.3-2.016 8.933 8.933 0 01-.723-5.309 6.529 6.529 0 011.46-3.279 8.955 8.955 0 012.722-2.214 7.857 7.857 0 013.3-.893q.113-.908.2-1.76.111-1.363-.964-1.391h-3.375a2.271 2.271 0 010-4.542zm.822 16.834a1.4 1.4 0 001.092-.767 7.454 7.454 0 00.78-1.7q.311-.966.482-1.718t.17-.781a2.852 2.852 0 00-1.644.483 3.255 3.255 0 00-1.063 1.135 5.711 5.711 0 00-.5 1.164 2.567 2.567 0 00.1 1.647q.299.538.583.537zm33.285-15.444a.25.25 0 00.283.284h9.214a1.832 1.832 0 110 3.663h-23.135a1.739 1.739 0 01-1.276-.539 1.818 1.818 0 010-2.584 1.74 1.74 0 011.276-.54h1.928a.251.251 0 00.283-.284V4.491a2.013 2.013 0 014.026 0v2.214a.25.25 0 00.283.284h2.637a.251.251 0 00.283-.284v-3.6a2.082 2.082 0 012.1-2.1h.652a1.453 1.453 0 011.447 1.447.15.15 0 00.17.17h6.777a1.585 1.585 0 011.162.483 1.682 1.682 0 010 2.356 1.588 1.588 0 01-1.162.482h-6.663a.25.25 0 00-.283.284zm5.585 17.232a.251.251 0 00.283-.284V13.32a2.041 2.041 0 114.082 0v13.314a2.035 2.035 0 01-2.042 2.044h-1.02a1.017 1.017 0 01-1.02-1.023.1.1 0 00-.114-.113h-15.592a.1.1 0 00-.114.113 1.017 1.017 0 01-1.02 1.023h-.992a2.035 2.035 0 01-2.013-2.016v-13.37a2.013 2.013 0 014.025 0v6.984a.192.192 0 00.085.17.188.188 0 00.17.028 13.523 13.523 0 003.714-2.186.082.082 0 00.043-.1.087.087 0 00-.1-.071h-1.844a1.504 1.504 0 110-3.009h.029c.113 0 .15-.057.113-.171a9.378 9.378 0 00-.567-1.164 1.292 1.292 0 01-.17-.624 1.558 1.558 0 01.056-.426 1.109 1.109 0 01.738-.739 1.831 1.831 0 01.709-.142 2.906 2.906 0 01.567.057 1.692 1.692 0 01.992.766 1 1 0 01.114.142 1.555 1.555 0 01.2.738 1.885 1.885 0 01-.085.539 1.635 1.635 0 01-.936.937h-.028a.044.044 0 00-.015.056.045.045 0 00.043.029h1.815a.251.251 0 00.283-.284v-1.76a1.786 1.786 0 013.573 0v1.76a.251.251 0 00.283.284h2.24a.045.045 0 00.042-.029c.009-.019 0-.028-.014-.028l-.227-.085a1.36 1.36 0 01-.879-.823 1.518 1.518 0 01-.114-.568 1.557 1.557 0 01.142-.653 2.162 2.162 0 01.936-.993 1.813 1.813 0 01.822-.2 1.371 1.371 0 01.482.086h.057a1.194 1.194 0 01.821.767 1.271 1.271 0 01.085.454 1.137 1.137 0 01-.227.682q-.594.88-.821 1.192a.1.1 0 00-.014.128.119.119 0 00.1.071h.511a1.504 1.504 0 010 3.009h-1.986c-.057 0-.091.023-.1.071a.08.08 0 00.043.1 12.217 12.217 0 002.41 1.562 1.218 1.218 0 01.652.908 1.063 1.063 0 01.028.256 1.214 1.214 0 01-.312.8 2.436 2.436 0 01-1.248.766 1.551 1.551 0 01-.425.056 1.736 1.736 0 01-.936-.284 16.173 16.173 0 01-2.154-1.817.114.114 0 00-.2.086v1.051a1.786 1.786 0 01-3.573 0v-.937a.11.11 0 00-.071-.114.109.109 0 00-.127.028 14.289 14.289 0 01-1.616 1.448 2.274 2.274 0 01-1.871.4 3.263 3.263 0 01-1.73-1.05 2.394 2.394 0 01-.312-.312.115.115 0 00-.2.085v2.442a.251.251 0 00.284.284zm18.033-7.806a2.386 2.386 0 01.681 1.533v.17a2.38 2.38 0 01-.482 1.448 1.136 1.136 0 01-.963.511.474.474 0 01-.143-.028 1.162 1.162 0 01-.992-.653 3.226 3.226 0 01-.2-.34.07.07 0 00-.085-.043.066.066 0 00-.056.071v8.431a2.042 2.042 0 11-4.083 0v-6.642a.066.066 0 00-.043-.071c-.028-.009-.053.005-.071.043q-.624 1.392-1.219 2.441a.991.991 0 01-.907.54h-.142a1.232 1.232 0 01-1.021-.738 3.75 3.75 0 01-.368-1.647v-.284a4.234 4.234 0 01.623-1.874 31.179 31.179 0 002.5-4.967.242.242 0 00-.028-.2.168.168 0 00-.142-.085h-1.333a1.937 1.937 0 01-1.956-1.945 1.925 1.925 0 01.567-1.391 1.864 1.864 0 011.389-.581h1.872a.251.251 0 00.284-.284V7.417a.23.23 0 00-.085-.185.3.3 0 00-.2-.071l-.85.142a1.453 1.453 0 01-.283.028 1.737 1.737 0 01-1.021-.341 2.325 2.325 0 01-.851-1.135 1.615 1.615 0 01-.085-.51 1.51 1.51 0 01.17-.681 1.3 1.3 0 01.964-.681 51.679 51.679 0 005.783-1.448 2.666 2.666 0 01.85-.142 2.928 2.928 0 01.879.142 2.444 2.444 0 011.361 1.05 1.441 1.441 0 01.284.852 1.469 1.469 0 01-.114.54 1.38 1.38 0 01-.992.937q-.708.2-1.446.369a.315.315 0 00-.283.341v2.924a.251.251 0 00.283.284h1.333a1.863 1.863 0 011.388.581 1.926 1.926 0 01.568 1.391 1.939 1.939 0 01-1.956 1.945h-1.56a.049.049 0 00-.056.056.091.091 0 00.056.086q.565.508 2.181 2.24zm16.9 3.35a2.183 2.183 0 01.028.34 2.03 2.03 0 01-.369 1.165 1.949 1.949 0 01-1.3.823l-.992.2a.28.28 0 00-.284.312v4.854a2.084 2.084 0 01-4.168 0v-4.088a.228.228 0 00-.085-.185.17.17 0 00-.17-.043l-6.124 1.107a2.633 2.633 0 01-.369.028 1.887 1.887 0 01-1.134-.369 1.947 1.947 0 01-.822-1.306 2.167 2.167 0 01-.028-.369 2.022 2.022 0 01.368-1.165 1.928 1.928 0 011.333-.852l6.777-1.221a.271.271 0 00.255-.312V3.725a2.025 2.025 0 01.61-1.49 2.085 2.085 0 012.948 0 2.032 2.032 0 01.61 1.49v13.939a.23.23 0 00.084.185.169.169 0 00.17.042l.369-.056a2.629 2.629 0 01.369-.028 1.97 1.97 0 011.134.369 1.848 1.848 0 01.788 1.305zm-14.177-4.939a1.628 1.628 0 01-.538-1.221 1.539 1.539 0 01.538-1.193 2.1 2.1 0 011.362-.568h.085a1.958 1.958 0 011.3.483q1.048.908 1.843 1.675a1.844 1.844 0 01.539 1.306 2 2 0 01-.681 1.533 1.679 1.679 0 01-1.191.482h-.17a2.007 2.007 0 01-1.3-.68q-.796-.882-1.789-1.818zm5.5-8.488a1.76 1.76 0 01.511 1.249v.2a2.016 2.016 0 01-.709 1.363 1.667 1.667 0 01-1.134.454.933.933 0 01-.227-.028 1.922 1.922 0 01-1.3-.681 22.822 22.822 0 00-1.645-1.76 1.575 1.575 0 01-.511-1.192 1.534 1.534 0 01.567-1.221 2.069 2.069 0 011.389-.51 1.965 1.965 0 011.361.51q.959.848 1.697 1.615zm19.591.992h5.018q5.045-.056 4.252 5.507a20.771 20.771 0 01-1.616 5.351 15.01 15.01 0 01-3.076 4.642 17.947 17.947 0 01-3.785 2.924 29.924 29.924 0 01-4.224 1.959 2.1 2.1 0 01-2.949-1.135q-.6-2.186 1.219-2.9a15.309 15.309 0 002.438-.994 14.424 14.424 0 003.317-2.328 12.773 12.773 0 002.793-3.605 11.033 11.033 0 001.261-3.69q.2-1.476-1.3-1.5h-5.076a21.083 21.083 0 01-3.288 4.23q-1.674 1.59-3.176.455-1.39-1.874.028-3.322a14.054 14.054 0 001.872-2.214 17.406 17.406 0 002.069-4.457 2.261 2.261 0 012.949-1.7q1.953.562 1.274 2.777zm13.665-.425a2.2 2.2 0 014.394 0v8.943a2.2 2.2 0 01-4.394 0zm5.358 16.72a8.873 8.873 0 003.246-1.959 9.9 9.9 0 001.729-2.654 9.622 9.622 0 00.751-3.9v-8.2a2.2 2.2 0 014.4 0v8.2a15.1 15.1 0 01-1.135 6.032 11.018 11.018 0 01-2.919 4.017 17.1 17.1 0 01-4.593 2.669q-2.24.681-2.949-1.363-.43-2.273 1.47-2.842zm30.058-1.248a2.228 2.228 0 010 4.456h-13.556a2.228 2.228 0 010-4.456zM212.87 7.984a1.956 1.956 0 012.212-2.215h12.413a2.229 2.229 0 010 4.457h-12.418a1.956 1.956 0 01-2.212-2.214zm23.301 1.646l1.106 6.813a1.411 1.411 0 01-1.219 1.789q-1.418.255-1.616-1.277l-1.134-6.728a1.345 1.345 0 011.3-1.7q1.422-.118 1.563 1.103zm.737 17.655q-2.015.453-2.41-1.363-.283-2.015 1.333-2.3a9.018 9.018 0 004.083-2.059 11.261 11.261 0 002.779-3.733 24.106 24.106 0 001.546-4.258 29.591 29.591 0 00.666-3.18 1.847 1.847 0 012.013-1.845q1.928.085 1.645 2.129a29.8 29.8 0 01-1.531 6.713 19.676 19.676 0 01-2.58 4.614 14.712 14.712 0 01-3.658 3.506 12.1 12.1 0 01-3.886 1.776zm4-17.658l1.106 6.813a1.418 1.418 0 01-1.248 1.789q-1.418.255-1.616-1.277l-1.135-6.728a1.363 1.363 0 011.3-1.7q1.45-.115 1.593 1.106zm19.276-2.581h5.018q5.046-.056 4.253 5.507a20.74 20.74 0 01-1.616 5.351 15.009 15.009 0 01-3.076 4.642 17.973 17.973 0 01-3.785 2.924 29.959 29.959 0 01-4.224 1.959 2.1 2.1 0 01-2.948-1.135q-.6-2.186 1.219-2.9a15.308 15.308 0 002.439-.994 14.445 14.445 0 003.317-2.328 12.772 12.772 0 002.792-3.605 11.056 11.056 0 001.262-3.69q.2-1.476-1.3-1.5h-5.08a21.05 21.05 0 01-3.289 4.23q-1.673 1.59-3.175.455-1.39-1.874.028-3.322a14.057 14.057 0 001.871-2.214 17.381 17.381 0 002.07-4.457 2.26 2.26 0 012.948-1.7q1.956.562 1.276 2.777zM30.759 5.472a8.59 8.59 0 00-3.147-1.607 5.776 5.776 0 00-5.953 1.892 4.506 4.506 0 01-6.782.106 6.115 6.115 0 00-6.4-1.893 8.448 8.448 0 00-2.785 1.5C.504 9.789 4.009 19.832 4.635 21.602c1.806 5.093 5.368 9.321 7.383 9.323 1.512 0 2.436.05 3.645-4.814a4.274 4.274 0 011.7-2.582 1.436 1.436 0 011.519-.014 4.22 4.22 0 011.8 2.6c1.21 4.864 2.3 4.861 3.7 4.814 2.01-.067 5.6-4.23 7.4-9.323.634-1.772 4.165-11.815-1.023-16.134z"/><path d="M14.271 16.677a3.626 3.626 0 007.252 0zM1.629 6.175a1.2 1.2 0 00.733.732l.211.061c.313.09.313.238 0 .327l-.211.061a1.2 1.2 0 00-.733.732l-.061.212c-.09.313-.238.313-.327 0l-.061-.212a1.194 1.194 0 00-.732-.732l-.212-.061c-.313-.09-.313-.238 0-.327l.212-.061a1.194 1.194 0 00.732-.732l.061-.212c.09-.313.238-.313.327 0zM4.387.91a2.445 2.445 0 001.495 1.495l.433.124c.638.185.638.487 0 .671l-.433.124a2.445 2.445 0 00-1.495 1.495l-.124.432c-.184.639-.486.639-.669 0l-.125-.432a2.442 2.442 0 00-1.495-1.495L1.542 3.2c-.638-.184-.638-.486 0-.671l.432-.124A2.442 2.442 0 003.469.91l.125-.432c.184-.639.486-.639.669 0z"/><rect height="4" rx="1" width="2" x="13.897" y="10.49"/><rect height="4" rx="1" width="2" x="19.897" y="10.49"/></symbol><symbol viewBox="0 0 415 120" id="mv-text_pc" xmlns="http://www.w3.org/2000/svg"><g fill="#fff"><g transform="translate(0 113)" clip-path="url(#a)"><circle cx="2" cy="2" r="2"/><circle cx="2" cy="2" r="2" transform="translate(10)"/><circle cx="2" cy="2" r="2" transform="translate(20)"/><circle cx="2" cy="2" r="2" transform="translate(30)"/><circle cx="2" cy="2" r="2" transform="translate(40)"/><circle cx="2" cy="2" r="2" transform="translate(50)"/><circle cx="2" cy="2" r="2" transform="translate(60)"/><circle cx="2" cy="2" r="2" transform="translate(70)"/><circle cx="2" cy="2" r="2" transform="translate(80)"/><circle cx="2" cy="2" r="2" transform="translate(90)"/><circle cx="2" cy="2" r="2" transform="translate(100)"/><circle cx="2" cy="2" r="2" transform="translate(110)"/><circle cx="2" cy="2" r="2" transform="translate(120)"/><circle cx="2" cy="2" r="2" transform="translate(130)"/><circle cx="2" cy="2" r="2" transform="translate(140)"/><circle cx="2" cy="2" r="2" transform="translate(150)"/><circle cx="2" cy="2" r="2" transform="translate(160)"/><circle cx="2" cy="2" r="2" transform="translate(170)"/><circle cx="2" cy="2" r="2" transform="translate(180)"/><circle cx="2" cy="2" r="2" transform="translate(190)"/><circle cx="2" cy="2" r="2" transform="translate(200)"/><circle cx="2" cy="2" r="2" transform="translate(210)"/><circle cx="2" cy="2" r="2" transform="translate(220)"/><circle cx="2" cy="2" r="2" transform="translate(230)"/><circle cx="2" cy="2" r="2" transform="translate(240)"/><circle cx="2" cy="2" r="2" transform="translate(250)"/><circle cx="2" cy="2" r="2" transform="translate(260)"/><circle cx="2" cy="2" r="2" transform="translate(270)"/><circle cx="2" cy="2" r="2" transform="translate(280)"/><circle cx="2" cy="2" r="2" transform="translate(290)"/><circle cx="2" cy="2" r="2" transform="translate(300)"/><circle cx="2" cy="2" r="2" transform="translate(310)"/><circle cx="2" cy="2" r="2" transform="translate(320)"/><circle cx="2" cy="2" r="2" transform="translate(330)"/><circle cx="2" cy="2" r="2" transform="translate(340)"/><circle cx="2" cy="2" r="2" transform="translate(350)"/><circle cx="2" cy="2" r="2" transform="translate(360)"/><circle cx="2" cy="2" r="2" transform="translate(370)"/><circle cx="2" cy="2" r="2" transform="translate(380)"/><circle cx="2" cy="2" r="2" transform="translate(390)"/><circle cx="2" cy="2" r="2" transform="translate(400)"/><circle cx="2" cy="2" r="2" transform="translate(410)"/></g><text transform="translate(0 99)" font-size="32" font-family="rounded-mplus-1c-bold, 'Rounded M\+ \31 c'" font-weight="700" letter-spacing=".08em"><tspan x="0" y="0">アットホームな</tspan><tspan y="0">歯医者</tspan><tspan y="0">さん</tspan></text><g transform="translate(0 48)" clip-path="url(#b)"><circle cx="2" cy="2" r="2"/><circle cx="2" cy="2" r="2" transform="translate(10)"/><circle cx="2" cy="2" r="2" transform="translate(20)"/><circle cx="2" cy="2" r="2" transform="translate(30)"/><circle cx="2" cy="2" r="2" transform="translate(40)"/><circle cx="2" cy="2" r="2" transform="translate(50)"/><circle cx="2" cy="2" r="2" transform="translate(60)"/><circle cx="2" cy="2" r="2" transform="translate(70)"/><circle cx="2" cy="2" r="2" transform="translate(80)"/><circle cx="2" cy="2" r="2" transform="translate(90)"/><circle cx="2" cy="2" r="2" transform="translate(100)"/><circle cx="2" cy="2" r="2" transform="translate(110)"/><circle cx="2" cy="2" r="2" transform="translate(120)"/><circle cx="2" cy="2" r="2" transform="translate(130)"/><circle cx="2" cy="2" r="2" transform="translate(140)"/><circle cx="2" cy="2" r="2" transform="translate(150)"/><circle cx="2" cy="2" r="2" transform="translate(160)"/><circle cx="2" cy="2" r="2" transform="translate(170)"/><circle cx="2" cy="2" r="2" transform="translate(180)"/><circle cx="2" cy="2" r="2" transform="translate(190)"/><circle cx="2" cy="2" r="2" transform="translate(200)"/><circle cx="2" cy="2" r="2" transform="translate(210)"/><circle cx="2" cy="2" r="2" transform="translate(220)"/><circle cx="2" cy="2" r="2" transform="translate(230)"/><circle cx="2" cy="2" r="2" transform="translate(240)"/><circle cx="2" cy="2" r="2" transform="translate(250)"/><circle cx="2" cy="2" r="2" transform="translate(260)"/><circle cx="2" cy="2" r="2" transform="translate(270)"/><circle cx="2" cy="2" r="2" transform="translate(280)"/><circle cx="2" cy="2" r="2" transform="translate(290)"/><circle cx="2" cy="2" r="2" transform="translate(300)"/><circle cx="2" cy="2" r="2" transform="translate(310)"/><circle cx="2" cy="2" r="2" transform="translate(320)"/><circle cx="2" cy="2" r="2" transform="translate(330)"/><circle cx="2" cy="2" r="2" transform="translate(340)"/><circle cx="2" cy="2" r="2" transform="translate(350)"/><circle cx="2" cy="2" r="2" transform="translate(360)"/><circle cx="2" cy="2" r="2" transform="translate(370)"/></g><text transform="translate(0 34)" font-size="32" font-family="rounded-mplus-1c-bold, 'Rounded M\+ \31 c'" font-weight="700" letter-spacing=".08em"><tspan x="0" y="0">街</tspan><tspan y="0">の</tspan><tspan y="0">皆</tspan><tspan y="0">さまの</tspan><tspan y="0">笑顔</tspan><tspan y="0">を</tspan><tspan y="0">守</tspan><tspan y="0">る</tspan></text></g></symbol><symbol viewBox="0 0 265 74.051" id="mv-text_sp" xmlns="http://www.w3.org/2000/svg"><g transform="translate(-160 -522)" fill="#fff"><circle cx="1.28" cy="1.28" r="1.28" transform="translate(160 593.49)"/><circle cx="1.28" cy="1.28" r="1.28" transform="translate(166.401 593.49)"/><circle cx="1.28" cy="1.28" r="1.28" transform="translate(172.802 593.49)"/><circle cx="1.28" cy="1.28" r="1.28" transform="translate(179.203 593.49)"/><circle cx="1.28" cy="1.28" r="1.28" transform="translate(185.604 593.49)"/><circle cx="1.28" cy="1.28" r="1.28" transform="translate(192.005 593.49)"/><circle cx="1.28" cy="1.28" r="1.28" transform="translate(198.406 593.49)"/><circle cx="1.28" cy="1.28" r="1.28" transform="translate(204.807 593.49)"/><circle cx="1.28" cy="1.28" r="1.28" transform="translate(211.208 593.49)"/><circle cx="1.28" cy="1.28" r="1.28" transform="translate(217.609 593.49)"/><circle cx="1.28" cy="1.28" r="1.28" transform="translate(224.01 593.49)"/><circle cx="1.28" cy="1.28" r="1.28" transform="translate(230.411 593.49)"/><circle cx="1.28" cy="1.28" r="1.28" transform="translate(236.812 593.49)"/><circle cx="1.28" cy="1.28" r="1.28" transform="translate(243.213 593.49)"/><circle cx="1.28" cy="1.28" r="1.28" transform="translate(249.614 593.49)"/><circle cx="1.28" cy="1.28" r="1.28" transform="translate(256.014 593.49)"/><circle cx="1.28" cy="1.28" r="1.28" transform="translate(262.415 593.49)"/><circle cx="1.28" cy="1.28" r="1.28" transform="translate(268.816 593.49)"/><circle cx="1.28" cy="1.28" r="1.28" transform="translate(275.217 593.49)"/><circle cx="1.28" cy="1.28" r="1.28" transform="translate(281.618 593.49)"/><circle cx="1.28" cy="1.28" r="1.28" transform="translate(288.019 593.49)"/><circle cx="1.28" cy="1.28" r="1.28" transform="translate(294.42 593.49)"/><circle cx="1.28" cy="1.28" r="1.28" transform="translate(300.821 593.49)"/><circle cx="1.28" cy="1.28" r="1.28" transform="translate(307.222 593.49)"/><circle cx="1.28" cy="1.28" r="1.28" transform="translate(313.623 593.49)"/><circle cx="1.28" cy="1.28" r="1.28" transform="translate(320.024 593.49)"/><circle cx="1.28" cy="1.28" r="1.28" transform="translate(326.425 593.49)"/><circle cx="1.28" cy="1.28" r="1.28" transform="translate(332.826 593.49)"/><circle cx="1.28" cy="1.28" r="1.28" transform="translate(339.227 593.49)"/><circle cx="1.28" cy="1.28" r="1.28" transform="translate(345.628 593.49)"/><circle cx="1.28" cy="1.28" r="1.28" transform="translate(352.029 593.49)"/><circle cx="1.28" cy="1.28" r="1.28" transform="translate(358.43 593.49)"/><circle cx="1.28" cy="1.28" r="1.28" transform="translate(364.831 593.49)"/><circle cx="1.28" cy="1.28" r="1.28" transform="translate(371.232 593.49)"/><circle cx="1.28" cy="1.28" r="1.28" transform="translate(377.633 593.49)"/><circle cx="1.28" cy="1.28" r="1.28" transform="translate(384.034 593.49)"/><circle cx="1.28" cy="1.28" r="1.28" transform="translate(390.435 593.49)"/><circle cx="1.28" cy="1.28" r="1.28" transform="translate(396.836 593.49)"/><circle cx="1.28" cy="1.28" r="1.28" transform="translate(403.237 593.49)"/><circle cx="1.28" cy="1.28" r="1.28" transform="translate(409.638 593.49)"/><circle cx="1.28" cy="1.28" r="1.28" transform="translate(416.039 593.49)"/><circle cx="1.28" cy="1.28" r="1.28" transform="translate(422.44 593.49)"/><text transform="translate(160 585.886)" font-size="20" font-family="rounded-mplus-1c-bold, 'Rounded M\+ \31 c'" font-weight="700" letter-spacing=".08em"><tspan x="0" y="0">アットホームな</tspan><tspan y="0">歯医者</tspan><tspan y="0">さん</tspan></text><circle cx="1.28" cy="1.28" r="1.28" transform="translate(160 550.604)"/><circle cx="1.28" cy="1.28" r="1.28" transform="translate(166.401 550.604)"/><circle cx="1.28" cy="1.28" r="1.28" transform="translate(172.802 550.604)"/><circle cx="1.28" cy="1.28" r="1.28" transform="translate(179.203 550.604)"/><circle cx="1.28" cy="1.28" r="1.28" transform="translate(185.604 550.604)"/><circle cx="1.28" cy="1.28" r="1.28" transform="translate(192.005 550.604)"/><circle cx="1.28" cy="1.28" r="1.28" transform="translate(198.406 550.604)"/><circle cx="1.28" cy="1.28" r="1.28" transform="translate(204.807 550.604)"/><circle cx="1.28" cy="1.28" r="1.28" transform="translate(211.208 550.604)"/><circle cx="1.28" cy="1.28" r="1.28" transform="translate(217.609 550.604)"/><circle cx="1.28" cy="1.28" r="1.28" transform="translate(224.01 550.604)"/><circle cx="1.28" cy="1.28" r="1.28" transform="translate(230.411 550.604)"/><circle cx="1.28" cy="1.28" r="1.28" transform="translate(236.812 550.604)"/><circle cx="1.28" cy="1.28" r="1.28" transform="translate(243.213 550.604)"/><circle cx="1.28" cy="1.28" r="1.28" transform="translate(249.614 550.604)"/><circle cx="1.28" cy="1.28" r="1.28" transform="translate(256.014 550.604)"/><circle cx="1.28" cy="1.28" r="1.28" transform="translate(262.415 550.604)"/><circle cx="1.28" cy="1.28" r="1.28" transform="translate(268.816 550.604)"/><circle cx="1.28" cy="1.28" r="1.28" transform="translate(275.217 550.604)"/><circle cx="1.28" cy="1.28" r="1.28" transform="translate(281.618 550.604)"/><circle cx="1.28" cy="1.28" r="1.28" transform="translate(288.019 550.604)"/><circle cx="1.28" cy="1.28" r="1.28" transform="translate(294.42 550.604)"/><circle cx="1.28" cy="1.28" r="1.28" transform="translate(300.821 550.604)"/><circle cx="1.28" cy="1.28" r="1.28" transform="translate(307.222 550.604)"/><circle cx="1.28" cy="1.28" r="1.28" transform="translate(313.623 550.604)"/><circle cx="1.28" cy="1.28" r="1.28" transform="translate(320.024 550.604)"/><circle cx="1.28" cy="1.28" r="1.28" transform="translate(326.425 550.604)"/><circle cx="1.28" cy="1.28" r="1.28" transform="translate(332.826 550.604)"/><circle cx="1.28" cy="1.28" r="1.28" transform="translate(339.227 550.604)"/><circle cx="1.28" cy="1.28" r="1.28" transform="translate(345.628 550.604)"/><circle cx="1.28" cy="1.28" r="1.28" transform="translate(352.029 550.604)"/><circle cx="1.28" cy="1.28" r="1.28" transform="translate(358.43 550.604)"/><circle cx="1.28" cy="1.28" r="1.28" transform="translate(364.831 550.604)"/><circle cx="1.28" cy="1.28" r="1.28" transform="translate(371.232 550.604)"/><circle cx="1.28" cy="1.28" r="1.28" transform="translate(377.633 550.604)"/><circle cx="1.28" cy="1.28" r="1.28" transform="translate(384.034 550.604)"/><circle cx="1.28" cy="1.28" r="1.28" transform="translate(390.435 550.604)"/><circle cx="1.28" cy="1.28" r="1.28" transform="translate(396.836 550.604)"/><text transform="translate(160 543)" font-size="20" font-family="rounded-mplus-1c-bold, 'Rounded M\+ \31 c'" font-weight="700" letter-spacing=".08em"><tspan x="0" y="0">街</tspan><tspan y="0">の</tspan><tspan y="0">皆</tspan><tspan y="0">さまの</tspan><tspan y="0">笑顔</tspan><tspan y="0">を</tspan><tspan y="0">守</tspan><tspan y="0">る</tspan></text></g></symbol><symbol viewBox="0 0 276 254.993" id="recommend01" xmlns="http://www.w3.org/2000/svg"><ellipse cx="138.5" cy="109.585" fill="#dff1fd" rx="110" ry="109.585"/><path d="M82.047 101.689a2.369 2.369 0 00-2.361-2.377l-22.242-.066a2.37 2.37 0 10-.012 4.74l22.241.066a2.37 2.37 0 002.374-2.363zm.535-18.859L65.57 76.509a2.37 2.37 0 10-1.651 4.443l17.008 6.322a2.37 2.37 0 101.651-4.443zm-1.738 33.469l-15.955 5.826a2.371 2.371 0 00.806 4.6 2.4 2.4 0 00.819-.144l15.96-5.832a2.37 2.37 0 00-1.63-4.45zM220.35 99.725l-22.242-.065a2.367 2.367 0 00-2.376 2.359 2.368 2.368 0 002.361 2.381l22.24.066a2.37 2.37 0 002.378-2.361 2.37 2.37 0 00-2.361-2.378zm-24.236-11.967a2.338 2.338 0 00.819-.143l17.043-6.224a2.37 2.37 0 001.414-3.042 2.37 2.37 0 00-3.039-1.414l-17.043 6.221a2.372 2.372 0 00-1.414 3.041 2.371 2.371 0 002.22 1.561zm16.655 34.794l-15.916-5.916a2.37 2.37 0 00-3.047 1.4 2.37 2.37 0 001.4 3.048L211.122 127a2.315 2.315 0 00.818.149 2.37 2.37 0 00.833-4.593z" fill="#1391e6"/><path d="M176.688 92.866c-7.5 66.635-18.823 71.782-22.109 71.773a4.543 4.543 0 01-3.3-1.333c-1.112-1.356-.929-3.755-.581-5.528 1.053-5.318 5.864-22.217-2.7-32.667a11.6 11.6 0 00-17.963-.051c-8.622 10.4-3.968 27.325-2.948 32.647.339 1.777.506 4.177-.614 5.526a4.544 4.544 0 01-3.31 1.314c-3.29-.01-14.572-5.224-21.692-71.9-1.419-13.266-.141-22.21 3.793-26.576 3.574-3.968 9.971-4.558 19.72-1.937a48.458 48.458 0 0028.36.083c9.756-2.565 16.151-1.936 19.706 2.054 3.911 4.392 5.134 13.34 3.637 26.6z" fill="#fff"/><g fill="#1391e6"><path d="M114.777 62.534a40.176 40.176 0 0110.207 1.593 48.459 48.459 0 0028.36.083 40.428 40.428 0 0110.072-1.534c4.319 0 7.492 1.184 9.634 3.588 3.911 4.392 5.134 13.34 3.637 26.6-7.5 66.574-18.8 71.773-22.1 71.773h-.095a4.546 4.546 0 01-3.218-1.334c-1.112-1.356-.929-3.755-.581-5.528 1.053-5.318 5.864-22.217-2.7-32.667a11.31 11.31 0 00-8.864-4.285h-.267a11.31 11.31 0 00-8.823 4.234c-8.622 10.4-3.968 27.325-2.948 32.647.339 1.777.506 4.177-.614 5.526a4.543 4.543 0 01-3.2 1.316h-.114c-3.29-.01-14.572-5.224-21.692-71.9-1.419-13.266-.141-22.21 3.793-26.576 2.13-2.365 5.264-3.53 9.513-3.53m0-5.251c-5.753 0-10.267 1.772-13.414 5.268-5.047 5.6-6.72 15.625-5.112 30.648 5.491 51.427 14.27 76.484 26.84 76.595h.186a9.732 9.732 0 006.891-2.836l.181-.179.164-.2c1.949-2.349 2.532-5.667 1.732-9.864-.1-.512-.226-1.118-.372-1.811-1.2-5.684-4.02-18.995 2.2-26.5l.027-.032.027-.033a6.032 6.032 0 014.728-2.269h.276a6.026 6.026 0 014.75 2.3l.026.033.027.032c6.155 7.515 3.247 20.786 2 26.454-.158.717-.295 1.345-.4 1.867-.824 4.2-.261 7.52 1.672 9.876l.162.2.181.181a9.733 9.733 0 006.935 2.877h.086c12.6 0 21.535-25 27.327-76.436 1.694-15.015.081-25.051-4.934-30.682-3.161-3.548-7.722-5.346-13.555-5.346A45.184 45.184 0 00152 59.139l-.063.016-.062.018a43.235 43.235 0 01-25.408-.075l-.064-.019-.064-.017a44.953 44.953 0 00-11.57-1.773z"/><path d="M130.424 83.596a1.793 1.793 0 01-.8-3.4l17.2-8.529a1.793 1.793 0 111.593 3.212l-17.2 8.529a1.788 1.788 0 01-.793.188z"/><path d="M147.623 83.596a1.788 1.788 0 01-.8-.188l-17.2-8.529a1.793 1.793 0 011.593-3.212l17.2 8.529a1.793 1.793 0 01-.8 3.4z"/></g><path d="M136.244 253.951l-5.88-10.781H22a22 22 0 010-44h232a22 22 0 110 44H145.636l-5.88 10.781a2 2 0 01-3.512 0z" fill="#1391e6"/><text fill="#fff" font-family="rounded-mplus-1c-bold, 'Rounded M\+ \31 c'" font-size="20" font-weight="700" letter-spacing=".08em" transform="translate(138 229.17)"><tspan x="-118" y="0">痛</tspan><tspan y="0">くない</tspan><tspan y="0">歯科医療</tspan><tspan y="0">の</tspan><tspan y="0">追求</tspan></text></symbol><symbol viewBox="0 0 276 254.99" id="recommend02" xmlns="http://www.w3.org/2000/svg"><g clip-path="url(#a)"><g transform="translate(28)"><ellipse cx="110" cy="108.764" fill="#dff1fd" rx="110" ry="108.764"/><path d="M61.494 156.896h96.558a13.847 13.847 0 006.289-11.544V55.23a14.138 14.138 0 00-14.279-13.958h-24.281v-1.593a1.794 1.794 0 00-1.819-1.776H95.58a1.8 1.8 0 00-1.818 1.776v1.6H69.488a14.138 14.138 0 00-14.281 13.958v90.122a13.848 13.848 0 006.287 11.537z" fill="#fff"/><g fill="#1391e6"><path d="M150.062 159.309h-80.57a14.138 14.138 0 01-14.281-13.958V55.23a14.138 14.138 0 0114.281-13.958h80.57a14.138 14.138 0 0114.282 13.958v90.121a14.138 14.138 0 01-14.282 13.958zM69.492 46.483a8.861 8.861 0 00-8.95 8.747v90.121a8.861 8.861 0 008.95 8.747h80.57a8.861 8.861 0 008.95-8.747V55.23a8.861 8.861 0 00-8.95-8.747z"/><path d="M145.076 63.227a4.1 4.1 0 014.156 4.037v41.238a4.1 4.1 0 01-4.155 4.037H74.469a4.1 4.1 0 01-4.155-4.037V67.261a4.1 4.1 0 014.155-4.037h70.607m0-3.708H74.469a7.861 7.861 0 00-7.972 7.745v41.238a7.861 7.861 0 007.972 7.745h70.608a7.861 7.861 0 007.972-7.745V67.261a7.862 7.862 0 00-7.973-7.745zm-66.853 66.049a8.018 8.018 0 11-8.018 8.019 8.028 8.028 0 018.018-8.019m0-3.708a11.726 11.726 0 1011.727 11.727 11.726 11.726 0 00-11.727-11.727zm63.101 3.708a8.018 8.018 0 11-8.019 8.019 8.027 8.027 0 018.019-8.019m0-3.708a11.726 11.726 0 1011.726 11.727 11.727 11.727 0 00-11.726-11.727zm-21.825-65.815h-19.454a2.606 2.606 0 110-5.211h19.454a2.606 2.606 0 110 5.211zM57.811 178.701a2.606 2.606 0 01-1.972-4.309l16.736-19.391a2.606 2.606 0 013.945 3.405l-16.737 19.391a2.6 2.6 0 01-1.972.904zm103.925 0a2.6 2.6 0 01-1.973-.9l-16.737-19.394a2.606 2.606 0 013.944-3.405l16.737 19.391a2.606 2.606 0 01-1.972 4.309z"/><path d="M152.975 170.059H66.252a2.606 2.606 0 110-5.211h86.723a2.606 2.606 0 110 5.211zM123.647 37.903H95.901a1.774 1.774 0 00-1.774 1.776v4.222a1.773 1.773 0 001.774 1.773h27.746a1.773 1.773 0 001.773-1.773v-4.222a1.773 1.773 0 00-1.773-1.774z"/></g></g><path d="M136.244 253.309l-5.88-10.781H22a22 22 0 010-44h232a22 22 0 110 44H145.636l-5.88 10.781a2 2 0 01-3.512 0z" fill="#1391e6"/><text fill="#fff" font-family="rounded-mplus-1c-bold, 'Rounded M\+ \31 c'" font-size="20" font-weight="700" letter-spacing=".08em" transform="translate(138 228.528)"><tspan x="-71.2" y="0">駅</tspan><tspan y="0">から</tspan><tspan y="0">徒歩3分</tspan></text></g></symbol><symbol viewBox="0 0 276 254.993" id="recommend03" xmlns="http://www.w3.org/2000/svg"><ellipse cx="138" cy="109.585" fill="#dff1fd" rx="110" ry="109.585"/><circle cx="136.492" cy="110.622" fill="#fff" r="61.866"/><g fill="#1391e6"><path d="M136.492 175.112a64.491 64.491 0 1164.491-64.492 64.565 64.565 0 01-64.491 64.492zm0-123.731a59.241 59.241 0 1059.24 59.24 59.307 59.307 0 00-59.24-59.24z"/><circle cx="136.492" cy="60.195" r="3.782"/><circle cx="136.492" cy="161.049" r="3.782"/><circle cx="186.919" cy="110.622" r="3.782"/><circle cx="86.065" cy="110.622" r="3.782"/><circle cx="180.163" cy="85.408" r="2.062"/><circle cx="92.82" cy="135.835" r="2.062"/><circle cx="161.705" cy="66.95" r="2.062"/><circle cx="111.278" cy="154.293" r="2.062"/><circle cx="111.278" cy="66.95" r="2.062"/><circle cx="161.705" cy="154.293" r="2.062"/><circle cx="92.82" cy="85.408" r="2.062"/><circle cx="180.163" cy="135.835" r="2.062"/><path d="M136.492 152.743c-1.054 0-1.928-1.164-2-2.661l-1.649-36.435c-.075-1.639.84-3.026 2-3.026h3.3c1.155 0 2.07 1.387 2 3.026l-1.649 36.435c-.075 1.497-.948 2.661-2.002 2.661z"/><path d="M105.743 119.046a2.2 2.2 0 011.352-2.679l25.948-8.852a2.184 2.184 0 012.774 1.577l.956 3.576a2.183 2.183 0 01-1.617 2.75l-26.9 5.276a2.2 2.2 0 01-2.513-1.648z"/><circle cx="136.224" cy="110.621" r="5.074"/></g><g transform="translate(155.515 44)"><circle cx="23.799" cy="23.799" fill="#1391e6" r="23.799"/><path d="M34.711 12.884a15.414 15.414 0 00-12.963-4.375A10.014 10.014 0 118.509 21.748a15.43 15.43 0 1026.2-8.864z" fill="#fff"/></g><path d="M136.244 253.951l-5.88-10.781H22a22 22 0 010-44h232a22 22 0 110 44H145.636l-5.88 10.781a2 2 0 01-3.512 0z" fill="#1391e6"/><text fill="#fff" font-family="rounded-mplus-1c-bold, 'Rounded M\+ \31 c'" font-size="20" font-weight="700" letter-spacing=".08em" transform="translate(138 229.17)"><tspan x="-86.98" y="0">夜20:30</tspan><tspan y="0">まで</tspan><tspan y="0">営業</tspan></text></symbol><symbol viewBox="0 0 67.564 20" id="title-deco" xmlns="http://www.w3.org/2000/svg"><path d="M11.975 0h3.589L3.589 17.708H0zm13 0h3.589L16.589 17.708H13zm13 0h3.589L29.589 17.708H26zm13 0h3.589L42.589 17.708H39zm13 0h3.589L55.589 17.708H52z" fill="#1391e6"/></symbol></svg>