<svg xmlns="http://www.w3.org/2000/svg" width="125.755" height="137.762" viewBox="0 0 125.755 137.762"><defs><style>.a{fill:#fff;}</style></defs><path class="a" d="M76.527,127.472c1.464,5.046,6.787,10.349,11.833,11.813l3.4.99c5.046,1.444,5.046,3.839,0,5.283l-3.4.99c-5.046,1.464-10.369,6.767-11.833,11.813l-.989,3.423c-1.444,5.046-3.839,5.046-5.283,0l-.989-3.423c-1.445-5.046-6.767-10.349-11.813-11.813l-3.423-.99c-5.046-1.444-5.046-3.839,0-5.283l3.423-.99c5.046-1.464,10.369-6.767,11.813-11.813l.989-3.423c1.444-5.046,3.839-5.046,5.283,0Z" transform="translate(-50.244 -27.806)"/><path class="a" d="M100.341,130.024c2.988,10.29,13.832,21.153,24.121,24.121l6.985,2c10.29,2.988,10.29,7.856,0,10.824l-6.985,2c-10.29,2.968-21.133,13.832-24.121,24.121l-2,6.965c-2.968,10.309-7.836,10.309-10.8,0l-2.018-6.965C82.552,182.8,71.688,171.934,61.4,168.966l-6.965-2c-10.29-2.968-10.29-7.836,0-10.824l6.965-2c10.29-2.968,21.153-13.832,24.121-24.121l2.018-6.965c2.968-10.309,7.836-10.309,10.8,0Z" transform="translate(-13.409 -115.326)"/></svg>