<svg height="201.656" viewBox="0 0 1280 201.656" width="1280" xmlns="http://www.w3.org/2000/svg"><g fill="#dff1fd"><path d="m740.746 471.23c-72.33 8.177-121.326 11.361-174.769 11.361s-102.425-3.185-174.711-11.356c-133.613-15.167-257.506-5.428-348.792 27.439-50.339 18.126-89.564 42.673-116.464 72.25h1280c-26.9-29.576-66.115-54.122-116.448-72.245-91.277-32.871-215.191-42.6-348.816-27.449z" transform="translate(73.99 -369.268)"/><path d="m76.527 127.472c1.464 5.046 6.787 10.349 11.833 11.813l3.4.99c5.046 1.444 5.046 3.839 0 5.283l-3.4.99c-5.046 1.464-10.369 6.767-11.833 11.813l-.989 3.423c-1.444 5.046-3.839 5.046-5.283 0l-.989-3.423c-1.445-5.046-6.767-10.349-11.813-11.813l-3.423-.99c-5.046-1.444-5.046-3.839 0-5.283l3.423-.99c5.046-1.464 10.369-6.767 11.813-11.813l.989-3.423c1.444-5.046 3.839-5.046 5.283 0z" transform="translate(-28.244 -17.245)"/><path d="m100.341 130.024c2.988 10.29 13.832 21.153 24.121 24.121l6.985 2c10.29 2.988 10.29 7.856 0 10.824l-6.985 2c-10.29 2.968-21.133 13.832-24.121 24.121l-2 6.965c-2.968 10.309-7.836 10.309-10.8 0l-2.018-6.965c-2.971-10.29-13.835-21.156-24.123-24.124l-6.965-2c-10.29-2.968-10.29-7.836 0-10.824l6.965-2c10.29-2.968 21.153-13.832 24.121-24.121l2.018-6.965c2.968-10.309 7.836-10.309 10.8 0z" transform="translate(8.591 -104.765)"/><path d="m70.8 124.445c-1.854 6.384-8.581 13.124-14.965 14.965l-4.335 1.24c-6.384 1.854-6.384 4.874 0 6.715l4.334 1.24c6.384 1.841 13.111 8.581 14.965 14.965l1.24 4.321c1.842 6.4 4.862 6.4 6.7 0l1.261-4.321c1.842-6.384 8.581-13.124 14.965-14.965l4.321-1.24c6.384-1.841 6.384-4.862 0-6.715l-4.321-1.24c-6.384-1.841-13.124-8.581-14.965-14.965l-1.252-4.321c-1.841-6.4-4.862-6.4-6.7 0z" transform="translate(1137.928 -53.218)"/><path d="m668.424 583.866a10 10 0 0 1 -7.071-17.071 29.844 29.844 0 1 0 -42.206 0 10 10 0 0 1 -14.142 14.143 49.844 49.844 0 1 1 70.49 0 9.971 9.971 0 0 1 -7.071 2.928z" transform="translate(1.57 -495.848)"/></g></svg>