<svg height="307.924" viewBox="0 0 556.499 307.924" width="556.499" xmlns="http://www.w3.org/2000/svg"><g fill="#dff1fd"><path d="m721.323-1014.206c-378.037 104.719-396.955-122.4-346.163-194.62s164.161-43.544 217.6-33.168 128.561-18.859 128.561-18.859 65.44-34.2 107.7-29.236 73.883 28 79.616 73.96c6.782 54.338-44.637 162.78-187.314 201.923z" transform="translate(-352.727 1294.994)"/><path d="m61.4 123.323a8.212 8.212 0 0 0 5.022 5.014l1.444.42c2.142.613 2.142 1.629 0 2.242l-1.444.42a8.211 8.211 0 0 0 -5.022 5.014l-.42 1.453c-.613 2.141-1.629 2.141-2.242 0l-.42-1.453a8.178 8.178 0 0 0 -5.014-5.014l-1.454-.419c-2.142-.613-2.142-1.629 0-2.242l1.453-.42a8.178 8.178 0 0 0 5.014-5.014l.42-1.453c.613-2.142 1.629-2.142 2.242 0z" transform="translate(-50.244 -71.354)"/><path d="m69.475 121.564a16.744 16.744 0 0 0 10.237 10.236l2.965.848c4.367 1.268 4.367 3.334 0 4.594l-2.965.848a16.744 16.744 0 0 0 -10.237 10.237l-.848 2.956c-1.26 4.375-3.326 4.375-4.585 0l-.857-2.956a16.723 16.723 0 0 0 -10.237-10.237l-2.956-.848c-4.367-1.26-4.367-3.326 0-4.594l2.956-.848a16.723 16.723 0 0 0 10.237-10.237l.857-2.956c1.26-4.375 3.326-4.375 4.585 0z" transform="translate(-32.58 -105.656)"/><path d="m615.921 532.417a4.245 4.245 0 0 1 -1.1-8.346 12.667 12.667 0 1 0 -15.516-8.955 4.245 4.245 0 1 1 -8.2 2.2 21.157 21.157 0 1 1 25.914 14.956 4.24 4.24 0 0 1 -1.098.145z" transform="translate(-321.728 -490.67)"/></g></svg>