<svg height="24" viewBox="0 0 24 24" width="24" xmlns="http://www.w3.org/2000/svg"><g fill="#393939"><path d="m0 0h24v24h-24z" opacity="0"/><path d="m5.368 10.232v-1.677a.5.5 0 0 1 .5-.5h1.68a.5.5 0 0 1 .5.5v1.677a.5.5 0 0 1 -.5.5h-1.677a.5.5 0 0 1 -.503-.5zm5.871.5h1.677a.5.5 0 0 0 .5-.5v-1.677a.5.5 0 0 0 -.5-.5h-1.678a.5.5 0 0 0 -.5.5v1.677a.5.5 0 0 0 .5.503zm-3.188 3.526v-1.678a.5.5 0 0 0 -.5-.5h-1.68a.5.5 0 0 0 -.5.5v1.677a.5.5 0 0 0 .5.5h1.677a.5.5 0 0 0 .503-.499zm3.187.5h1.677a.5.5 0 0 0 .5-.5v-1.678a.5.5 0 0 0 -.5-.5h-1.677a.5.5 0 0 0 -.5.5v1.677a.5.5 0 0 0 .5.504zm7.548 5.2v1.51h-18.786v-1.51a.5.5 0 0 1 .5-.5h.818v-15.892a.95.95 0 0 1 1.006-.882h3.715v-1.678a1.006 1.006 0 0 1 1.006-1.006h4.7a1.006 1.006 0 0 1 1.006 1.006v1.678h3.711a.95.95 0 0 1 1.006.882v15.892h.818a.5.5 0 0 1 .501.503zm-15.452-.542h4.717v-2.81a.5.5 0 0 1 .5-.5h1.677a.5.5 0 0 1 .5.5v2.81h4.718v-14.716h-2.7v1a1.006 1.006 0 0 1 -1.004 1.01h-4.7a1.006 1.006 0 0 1 -1.003-1.01v-1h-2.7zm7.821-16.732h-1.09v-1.09a.252.252 0 0 0 -.252-.252h-.839a.252.252 0 0 0 -.252.252v1.09h-1.09a.252.252 0 0 0 -.252.252v.839a.252.252 0 0 0 .252.252h1.09v1.09a.252.252 0 0 0 .252.252h.839a.252.252 0 0 0 .252-.252v-1.091h1.09a.252.252 0 0 0 .252-.252v-.839a.252.252 0 0 0 -.252-.251z" transform="translate(3 1)"/></g><path d="m0 0h24v24h-24z" fill="none"/></svg>