<svg height="254.99" viewBox="0 0 276 254.99" width="276" xmlns="http://www.w3.org/2000/svg" xmlns:xlink="http://www.w3.org/1999/xlink"><clipPath id="a"><path d="m0 0h276v254.99h-276z"/></clipPath><g clip-path="url(#a)"><g transform="translate(28)"><ellipse cx="110" cy="108.764" fill="#dff1fd" rx="110" ry="108.764"/><path d="m676.532 832.217h96.558a13.847 13.847 0 0 0 6.289-11.544v-90.122a14.138 14.138 0 0 0 -14.279-13.958h-24.281v-1.593a1.794 1.794 0 0 0 -1.819-1.776h-28.382a1.8 1.8 0 0 0 -1.818 1.776v1.6h-24.274a14.138 14.138 0 0 0 -14.281 13.958v90.122a13.848 13.848 0 0 0 6.287 11.537z" fill="#fff" transform="translate(-615.038 -675.321)"/><g fill="#1391e6"><path d="m765.1 835.35h-80.57a14.138 14.138 0 0 1 -14.281-13.958v-90.121a14.138 14.138 0 0 1 14.281-13.958h80.57a14.138 14.138 0 0 1 14.282 13.958v90.121a14.138 14.138 0 0 1 -14.282 13.958zm-80.57-112.826a8.861 8.861 0 0 0 -8.95 8.747v90.121a8.861 8.861 0 0 0 8.95 8.747h80.57a8.861 8.861 0 0 0 8.95-8.747v-90.121a8.861 8.861 0 0 0 -8.95-8.747z" transform="translate(-615.038 -676.041)"/><path d="m762.526 743.166a4.1 4.1 0 0 1 4.156 4.037v41.238a4.1 4.1 0 0 1 -4.155 4.037h-70.608a4.1 4.1 0 0 1 -4.155-4.037v-41.241a4.1 4.1 0 0 1 4.155-4.037h70.607m0-3.708h-70.607a7.861 7.861 0 0 0 -7.972 7.745v41.238a7.861 7.861 0 0 0 7.972 7.745h70.608a7.861 7.861 0 0 0 7.972-7.745v-41.238a7.862 7.862 0 0 0 -7.973-7.745z" transform="translate(-617.45 -679.939)"/><path d="m695.673 818.822a8.018 8.018 0 1 1 -8.018 8.019 8.028 8.028 0 0 1 8.018-8.019m0-3.708a11.726 11.726 0 1 0 11.727 11.727 11.726 11.726 0 0 0 -11.727-11.727z" transform="translate(-617.45 -693.257)"/><path d="m769.254 818.822a8.018 8.018 0 1 1 -8.019 8.019 8.027 8.027 0 0 1 8.019-8.019m0-3.708a11.726 11.726 0 1 0 11.726 11.727 11.727 11.727 0 0 0 -11.726-11.727z" transform="translate(-627.93 -693.257)"/><path d="m742.06 734.125h-19.454a2.605 2.605 0 1 1 0-5.211h19.454a2.605 2.605 0 1 1 0 5.211z" transform="translate(-622.561 -678.083)"/><path d="m672.849 878.846a2.606 2.606 0 0 1 -1.972-4.309l16.736-19.391a2.606 2.606 0 0 1 3.945 3.405l-16.737 19.391a2.6 2.6 0 0 1 -1.972.904z" transform="translate(-615.038 -700.145)"/><path d="m792.4 878.846a2.6 2.6 0 0 1 -1.973-.9l-16.737-19.394a2.606 2.606 0 0 1 3.944-3.405l16.737 19.391a2.606 2.606 0 0 1 -1.972 4.309z" transform="translate(-630.664 -700.145)"/><path d="m769.8 872.5h-86.723a2.606 2.606 0 1 1 0-5.211h86.723a2.606 2.606 0 1 1 0 5.211z" transform="translate(-616.825 -702.441)"/><path d="m745.5 713.224h-27.746a1.774 1.774 0 0 0 -1.774 1.776v4.222a1.773 1.773 0 0 0 1.774 1.773h27.746a1.773 1.773 0 0 0 1.773-1.773v-4.222a1.773 1.773 0 0 0 -1.773-1.774z" transform="translate(-621.853 -675.321)"/></g></g><g transform="translate(0 198.528)"><path d="m136.244 54.781-5.88-10.781h-108.364a22 22 0 0 1 0-44h232a22 22 0 1 1 0 44h-108.364l-5.88 10.781a2 2 0 0 1 -3.512 0z" fill="#1391e6"/><text fill="#fff" font-family="rounded-mplus-1c-bold, 'Rounded M\+ \31 c'" font-size="20" font-weight="700" letter-spacing=".08em" transform="translate(138 30)"><tspan x="-71.2" y="0">駅</tspan><tspan y="0">から</tspan><tspan y="0">徒歩3分</tspan></text></g></g></svg>